<?xml version="1.0" encoding="utf-8"?>
<!-- Generator: Adobe Illustrator 17.0.2, SVG Export Plug-In . SVG Version: 6.00 Build 0)  -->
<!DOCTYPE svg PUBLIC "-//W3C//DTD SVG 1.1//EN" "http://www.w3.org/Graphics/SVG/1.1/DTD/svg11.dtd">
<svg version="1.1" id="Layer_1" xmlns="http://www.w3.org/2000/svg" xmlns:xlink="http://www.w3.org/1999/xlink" x="0px" y="0px"
	 width="612px" height="792px" viewBox="0 0 612 792" enable-background="new 0 0 612 792" xml:space="preserve">
<g>
	<g>
		<linearGradient id="SVGID_1_" gradientUnits="userSpaceOnUse" x1="306" y1="380.2903" x2="306" y2="411.5651">
			<stop  offset="0" style="stop-color:#64B7E6"/>
			<stop  offset="1" style="stop-color:#1C75BC"/>
		</linearGradient>
		<path fill="url(#SVGID_1_)" d="M295.334,411.875c-2.872,0-5.209-2.337-5.209-5.209v-21.332c0-2.872,2.337-5.209,5.209-5.209
			h21.333c2.872,0,5.208,2.337,5.208,5.209v21.332c0,2.872-2.336,5.209-5.208,5.209H295.334z"/>
		<g>
			<path fill="#1E6EB4" d="M316.667,380.25c2.803,0,5.083,2.281,5.083,5.084v21.332c0,2.803-2.28,5.084-5.083,5.084h-21.333
				c-2.803,0-5.084-2.281-5.084-5.084v-21.332c0-2.803,2.281-5.084,5.084-5.084H316.667 M316.667,380h-21.333
				c-2.934,0-5.334,2.4-5.334,5.334v21.332c0,2.936,2.4,5.334,5.334,5.334h21.333c2.934,0,5.333-2.398,5.333-5.334v-21.332
				C322,382.4,319.601,380,316.667,380L316.667,380z"/>
		</g>
	</g>
	<g>
		<linearGradient id="SVGID_2_" gradientUnits="userSpaceOnUse" x1="300" y1="406.1006" x2="300" y2="395.3383">
			<stop  offset="0" style="stop-color:#4296D2"/>
			<stop  offset="1" style="stop-color:#1C75BC"/>
		</linearGradient>
		<rect x="297.3" y="391.3" fill="url(#SVGID_2_)" width="5.4" height="15.4"/>
		<linearGradient id="SVGID_3_" gradientUnits="userSpaceOnUse" x1="310" y1="406.1006" x2="310" y2="395.3383">
			<stop  offset="0" style="stop-color:#4296D2"/>
			<stop  offset="1" style="stop-color:#1C75BC"/>
		</linearGradient>
		<path fill="url(#SVGID_3_)" d="M313.612,392.188c-0.885-0.496-2.011-0.77-3.171-0.77c-0.604,0-1.191,0.072-1.741,0.213V391.3h-5.4
			v15.4h5.4v-9.214l1.252-0.603c0.038-0.019,0.199-0.066,0.479-0.066c0.296,0,0.491,0.054,0.521,0.068
			c0.128,0.097,0.339,0.473,0.348,0.614v9.2h5.4v-9.2C316.7,395.424,315.401,393.19,313.612,392.188z"/>
		<linearGradient id="SVGID_4_" gradientUnits="userSpaceOnUse" x1="300" y1="406.1001" x2="300" y2="395.3382">
			<stop  offset="0" style="stop-color:#4296D2"/>
			<stop  offset="1" style="stop-color:#1C75BC"/>
		</linearGradient>
		<path fill="url(#SVGID_4_)" d="M300,384.8c-1.765,0-3.2,1.436-3.2,3.2s1.436,3.2,3.2,3.2c1.765,0,3.2-1.436,3.2-3.2
			S301.765,384.8,300,384.8z"/>
	</g>
	<g>
		<linearGradient id="SVGID_5_" gradientUnits="userSpaceOnUse" x1="306" y1="380.1667" x2="306" y2="411.6876">
			<stop  offset="0" style="stop-color:#DFE3E5"/>
			<stop  offset="1" style="stop-color:#BEC6CC"/>
		</linearGradient>
		<path fill="url(#SVGID_5_)" d="M316.667,380h-21.333c-2.934,0-5.334,2.4-5.334,5.334v21.332c0,2.936,2.4,5.334,5.334,5.334h21.333
			c2.934,0,5.333-2.398,5.333-5.334v-21.332C322,382.4,319.601,380,316.667,380z M321,406.666c0,2.391-1.943,4.334-4.333,4.334
			h-21.333c-2.39,0-4.334-1.943-4.334-4.334v-21.332c0-2.39,1.944-4.334,4.334-4.334h21.333c2.39,0,4.333,1.944,4.333,4.334V406.666
			z"/>
	</g>
	<g opacity="0.3">
		<linearGradient id="SVGID_6_" gradientUnits="userSpaceOnUse" x1="306" y1="411.125" x2="306" y2="394.1095">
			<stop  offset="0" style="stop-color:#FFFFFF"/>
			<stop  offset="1" style="stop-color:#000000"/>
		</linearGradient>
		<path fill="url(#SVGID_6_)" d="M316.667,381h-21.333c-2.39,0-4.334,1.944-4.334,4.334v21.332c0,2.391,1.944,4.334,4.334,4.334
			h21.333c2.39,0,4.333-1.943,4.333-4.334v-21.332C321,382.944,319.057,381,316.667,381z M320,406.666
			c0,1.838-1.495,3.334-3.333,3.334h-21.333c-1.838,0-3.334-1.496-3.334-3.334v-21.332c0-1.838,1.496-3.334,3.334-3.334h21.333
			c1.838,0,3.333,1.496,3.333,3.334V406.666z"/>
	</g>
	<g opacity="0.7">
		<linearGradient id="SVGID_7_" gradientUnits="userSpaceOnUse" x1="306" y1="381.0278" x2="306" y2="386.2819">
			<stop  offset="0" style="stop-color:#FFFFFF"/>
			<stop  offset="1" style="stop-color:#000000"/>
		</linearGradient>
		<path fill="url(#SVGID_7_)" d="M316.667,381h-21.333c-2.39,0-4.334,1.944-4.334,4.334v1c0-2.39,1.944-4.334,4.334-4.334h21.333
			c2.39,0,4.333,1.944,4.333,4.334v-1C321,382.944,319.057,381,316.667,381z"/>
	</g>
	<g>
		<rect x="298" y="392" fill="#FFFFFF" width="4" height="14"/>
		<path fill="#FFFFFF" d="M313.27,392.798c-1.489-0.836-3.686-0.906-5.27-0.184V392h-4v14h4v-8.954l1.648-0.793
			c0.404-0.194,1.29-0.177,1.665,0.034c0.283,0.158,0.686,0.812,0.686,1.213v8.5h4v-8.5C316,395.662,314.852,393.684,313.27,392.798
			z"/>
		<circle fill="#FFFFFF" cx="300" cy="388" r="2.5"/>
	</g>
</g>
</svg>
