<?xml version="1.0" encoding="utf-8"?><!DOCTYPE svg PUBLIC "-//W3C//DTD SVG 1.1//EN" "http://www.w3.org/Graphics/SVG/1.1/DTD/svg11.dtd"><svg xmlns="http://www.w3.org/2000/svg" xmlns:xlink="http://www.w3.org/1999/xlink"><symbol viewBox="-247.5 -247.5 1107 1287" id="linkedin"><linearGradient id="aa" gradientUnits="userSpaceOnUse" x1="306" y1="380.29" x2="306" y2="411.565"><stop offset="0" stop-color="#64B7E6"/><stop offset="1" stop-color="#1C75BC"/></linearGradient><path fill="url(#aa)" d="M295.334 411.875c-2.872 0-5.21-2.337-5.21-5.21v-21.33c0-2.873 2.338-5.21 5.21-5.21h21.333c2.872 0 5.208 2.337 5.208 5.21v21.33c0 2.873-2.336 5.21-5.208 5.21h-21.333z"/><path fill="#1E6EB4" d="M316.667 380.25c2.803 0 5.083 2.28 5.083 5.084v21.332c0 2.803-2.28 5.084-5.083 5.084h-21.333c-2.803 0-5.084-2.28-5.084-5.084v-21.332c0-2.803 2.28-5.084 5.084-5.084h21.333m0-.25h-21.333c-2.934 0-5.334 2.4-5.334 5.334v21.332c0 2.936 2.4 5.334 5.334 5.334h21.333c2.934 0 5.333-2.398 5.333-5.334v-21.332c0-2.934-2.4-5.334-5.333-5.334z"/><linearGradient id="ab" gradientUnits="userSpaceOnUse" x1="300" y1="406.101" x2="300" y2="395.338"><stop offset="0" stop-color="#4296D2"/><stop offset="1" stop-color="#1C75BC"/></linearGradient><path fill="url(#ab)" d="M297.3 391.3h5.4v15.4h-5.4z"/><linearGradient id="ac" gradientUnits="userSpaceOnUse" x1="310" y1="406.101" x2="310" y2="395.338"><stop offset="0" stop-color="#4296D2"/><stop offset="1" stop-color="#1C75BC"/></linearGradient><path fill="url(#ac)" d="M313.612 392.188c-.885-.496-2.01-.77-3.17-.77-.605 0-1.192.072-1.742.213v-.33h-5.4v15.4h5.4v-9.214l1.252-.603c.038-.02.2-.066.48-.066.295 0 .49.054.52.068.128.097.34.473.348.614v9.2h5.4v-9.2c0-2.076-1.3-4.31-3.088-5.312z"/><linearGradient id="ad" gradientUnits="userSpaceOnUse" x1="300" y1="406.1" x2="300" y2="395.338"><stop offset="0" stop-color="#4296D2"/><stop offset="1" stop-color="#1C75BC"/></linearGradient><path fill="url(#ad)" d="M300 384.8c-1.765 0-3.2 1.436-3.2 3.2s1.436 3.2 3.2 3.2c1.765 0 3.2-1.436 3.2-3.2s-1.435-3.2-3.2-3.2z"/><linearGradient id="ae" gradientUnits="userSpaceOnUse" x1="306" y1="380.167" x2="306" y2="411.688"><stop offset="0" stop-color="#DFE3E5"/><stop offset="1" stop-color="#BEC6CC"/></linearGradient><path fill="url(#ae)" d="M316.667 380h-21.333c-2.934 0-5.334 2.4-5.334 5.334v21.332c0 2.936 2.4 5.334 5.334 5.334h21.333c2.934 0 5.333-2.398 5.333-5.334v-21.332c0-2.934-2.4-5.334-5.333-5.334zM321 406.666c0 2.39-1.943 4.334-4.333 4.334h-21.333c-2.39 0-4.334-1.943-4.334-4.334v-21.332c0-2.39 1.944-4.334 4.334-4.334h21.333c2.39 0 4.333 1.944 4.333 4.334v21.332z"/><g opacity=".3"><linearGradient id="af" gradientUnits="userSpaceOnUse" x1="306" y1="411.125" x2="306" y2="394.11"><stop offset="0" stop-color="#fff"/><stop offset="1"/></linearGradient><path fill="url(#af)" d="M316.667 381h-21.333c-2.39 0-4.334 1.944-4.334 4.334v21.332c0 2.39 1.944 4.334 4.334 4.334h21.333c2.39 0 4.333-1.943 4.333-4.334v-21.332c0-2.39-1.943-4.334-4.333-4.334zM320 406.666c0 1.838-1.495 3.334-3.333 3.334h-21.333c-1.838 0-3.334-1.496-3.334-3.334v-21.332c0-1.838 1.496-3.334 3.334-3.334h21.333c1.838 0 3.333 1.496 3.333 3.334v21.332z"/></g><g opacity=".7"><linearGradient id="ag" gradientUnits="userSpaceOnUse" x1="306" y1="381.028" x2="306" y2="386.282"><stop offset="0" stop-color="#fff"/><stop offset="1"/></linearGradient><path fill="url(#ag)" d="M316.667 381h-21.333c-2.39 0-4.334 1.944-4.334 4.334v1c0-2.39 1.944-4.334 4.334-4.334h21.333c2.39 0 4.333 1.944 4.333 4.334v-1c0-2.39-1.943-4.334-4.333-4.334z"/></g><g fill="#fff"><path d="M298 392h4v14h-4zM313.27 392.798c-1.49-.836-3.686-.906-5.27-.184V392h-4v14h4v-8.954l1.648-.793c.404-.194 1.29-.177 1.665.034.283.158.686.812.686 1.213v8.5h4v-8.5c0-1.838-1.148-3.816-2.73-4.702z"/><circle cx="300" cy="388" r="2.5"/></g></symbol><symbol viewBox="-30 -30 118 156" enable-background="new 0 0 58 96" id="thearrow"><defs><path id="ba" d="M3.5 2.3h51.6v92.2H3.5z"/></defs><clipPath id="bb"><use xlink:href="#ba" overflow="visible"/></clipPath><path clip-path="url(#bb)" d="M9 94.5L3.5 89l40.7-40.6L3.5 7.7 9 2.3l46.1 46.1z"/></symbol></svg>